<svg width="134" height="108" viewBox="0 0 134 108" fill="none" xmlns="http://www.w3.org/2000/svg">
<g clip-path="url(#clip0_1041_22511)">
<path d="M56.9531 47.3159V53.5885" stroke="#878787" stroke-width="2" stroke-linecap="round" stroke-linejoin="round"/>
<path d="M69.4985 42.6115V53.5885" stroke="#878787" stroke-width="2" stroke-linecap="round" stroke-linejoin="round"/>
<path d="M63.2256 41.0432V53.5883" stroke="#878787" stroke-width="2" stroke-linecap="round" stroke-linejoin="round"/>
<path d="M75.771 39.4752V53.5885" stroke="#878787" stroke-width="2" stroke-linecap="round" stroke-linejoin="round"/>
<path d="M55.5059 41.6465L62.1311 35.6838C62.5107 35.3421 63.0423 35.2258 63.53 35.3777L68.8495 37.0349C69.3778 37.1995 69.9537 37.0485 70.3333 36.6459L77.2186 29.3426" stroke="#878787" stroke-width="2" stroke-linecap="round"/>
<path d="M78.666 33.6851V28.6188C78.666 28.2191 78.342 27.8951 77.9423 27.8951H72.876" stroke="#878787" stroke-width="2" stroke-linecap="round"/>
</g>
<path d="M36.4384 79.6354V68.4354H38.2784V79.6354H36.4384ZM41.0803 79.6354V71.4754H42.7603V72.5954H42.8403C42.9683 72.382 43.1656 72.1687 43.4323 71.9554C44.0083 71.5287 44.6643 71.3154 45.4003 71.3154C46.4136 71.3154 47.1976 71.6087 47.7523 72.1954C48.3176 72.782 48.6003 73.6354 48.6003 74.7554V79.6354H46.9203V74.9154C46.9203 74.2007 46.7603 73.678 46.4403 73.3474C46.1309 73.006 45.6509 72.8354 45.0003 72.8354C44.3496 72.8354 43.8109 73.0594 43.3843 73.5074C42.9683 73.9447 42.7603 74.5207 42.7603 75.2354V79.6354H41.0803ZM50.6034 77.0754H52.4434C52.5181 77.2887 52.6514 77.4914 52.8434 77.6834C53.2381 78.078 53.7714 78.2754 54.4434 78.2754C55.0301 78.2754 55.4567 78.1847 55.7234 78.0034C55.9901 77.822 56.1234 77.5927 56.1234 77.3154C56.1234 77.2194 56.1021 77.134 56.0594 77.0594C56.0167 76.974 55.9421 76.8994 55.8354 76.8354C55.7287 76.7714 55.6274 76.718 55.5314 76.6754C55.4354 76.622 55.2914 76.574 55.0994 76.5314C54.9074 76.478 54.7527 76.4407 54.6354 76.4194C54.5181 76.3874 54.3367 76.3447 54.0914 76.2914C53.8567 76.238 53.6807 76.2007 53.5634 76.1794C51.8567 75.7954 51.0034 74.974 51.0034 73.7154C51.0034 73.0754 51.2967 72.5154 51.8834 72.0354C52.4701 71.5554 53.2434 71.3154 54.2034 71.3154C55.5367 71.3154 56.5341 71.742 57.1954 72.5954C57.4941 72.9687 57.6967 73.3954 57.8034 73.8754H56.0434C55.9581 73.662 55.8407 73.4914 55.6914 73.3634C55.3181 73.0114 54.8221 72.8354 54.2034 72.8354C53.7234 72.8354 53.3607 72.9207 53.1154 73.0914C52.8807 73.262 52.7634 73.4754 52.7634 73.7314C52.7634 73.8274 52.7847 73.918 52.8274 74.0034C52.8701 74.078 52.9447 74.1474 53.0514 74.2114C53.1581 74.2754 53.2594 74.3287 53.3554 74.3714C53.4621 74.414 53.6061 74.462 53.7874 74.5154C53.9687 74.558 54.1234 74.5954 54.2514 74.6274C54.3794 74.6487 54.5554 74.686 54.7794 74.7394C55.0141 74.782 55.1954 74.8194 55.3234 74.8514C57.0301 75.2354 57.8834 76.0567 57.8834 77.3154C57.8834 77.998 57.5741 78.5847 56.9554 79.0754C56.3474 79.5554 55.5101 79.7954 54.4434 79.7954C53.0567 79.7954 51.9954 79.342 51.2594 78.4354C50.9287 78.0194 50.7101 77.566 50.6034 77.0754ZM60.1714 69.9874C59.9794 69.7954 59.8834 69.5607 59.8834 69.2834C59.8834 69.006 59.9794 68.7714 60.1714 68.5794C60.3634 68.3767 60.5981 68.2754 60.8754 68.2754C61.1528 68.2754 61.3874 68.3767 61.5794 68.5794C61.7821 68.7714 61.8834 69.006 61.8834 69.2834C61.8834 69.5607 61.7821 69.7954 61.5794 69.9874C61.3874 70.1794 61.1528 70.2754 60.8754 70.2754C60.5981 70.2754 60.3634 70.1794 60.1714 69.9874ZM60.0434 79.6354V71.4754H61.7234V79.6354H60.0434ZM64.9689 78.6274C64.2436 77.838 63.8809 76.814 63.8809 75.5554C63.8809 74.2967 64.2436 73.278 64.9689 72.4994C65.7049 71.71 66.6223 71.3154 67.7209 71.3154C68.4143 71.3154 69.0489 71.518 69.6249 71.9234C69.8809 72.1047 70.0996 72.3074 70.2809 72.5314H70.3609V71.4754H72.0409V82.6754H65.0809V81.1554H70.3609V78.5954H70.2809C70.0996 78.8194 69.8809 79.022 69.6249 79.2034C69.0596 79.598 68.4249 79.7954 67.7209 79.7954C66.6223 79.7954 65.7049 79.406 64.9689 78.6274ZM66.2809 73.5394C65.8543 74.0087 65.6409 74.6807 65.6409 75.5554C65.6409 76.43 65.8543 77.102 66.2809 77.5714C66.7076 78.0407 67.2943 78.2754 68.0409 78.2754C68.7449 78.2754 69.3049 78.0407 69.7209 77.5714C70.1476 77.0914 70.3609 76.4194 70.3609 75.5554C70.3609 74.6914 70.1476 74.0247 69.7209 73.5554C69.3049 73.0754 68.7449 72.8354 68.0409 72.8354C67.2943 72.8354 66.7076 73.07 66.2809 73.5394ZM74.6784 79.6354V68.4354H76.3584V72.5954H76.4384C76.5664 72.382 76.7638 72.1687 77.0304 71.9554C77.6064 71.5287 78.2624 71.3154 78.9984 71.3154C80.0118 71.3154 80.7958 71.6087 81.3504 72.1954C81.9158 72.782 82.1984 73.6354 82.1984 74.7554V79.6354H80.5184V74.9154C80.5184 74.2007 80.3584 73.678 80.0384 73.3474C79.7291 73.006 79.2491 72.8354 78.5984 72.8354C77.9478 72.8354 77.4091 73.0594 76.9824 73.5074C76.5664 73.9447 76.3584 74.5207 76.3584 75.2354V79.6354H74.6784ZM84.1216 72.9954V71.4754H85.0816V69.7154H86.7616V71.4754H89.2416V72.9954H86.7616V78.1154H89.3216V79.6354H85.0816V72.9954H84.1216ZM90.9253 77.0754H92.7653C92.84 77.2887 92.9733 77.4914 93.1653 77.6834C93.56 78.078 94.0933 78.2754 94.7653 78.2754C95.352 78.2754 95.7787 78.1847 96.0453 78.0034C96.312 77.822 96.4453 77.5927 96.4453 77.3154C96.4453 77.2194 96.424 77.134 96.3813 77.0594C96.3387 76.974 96.264 76.8994 96.1573 76.8354C96.0507 76.7714 95.9493 76.718 95.8533 76.6754C95.7573 76.622 95.6133 76.574 95.4213 76.5314C95.2293 76.478 95.0747 76.4407 94.9573 76.4194C94.84 76.3874 94.6587 76.3447 94.4133 76.2914C94.1787 76.238 94.0027 76.2007 93.8853 76.1794C92.1787 75.7954 91.3253 74.974 91.3253 73.7154C91.3253 73.0754 91.6187 72.5154 92.2053 72.0354C92.792 71.5554 93.5653 71.3154 94.5253 71.3154C95.8587 71.3154 96.856 71.742 97.5173 72.5954C97.816 72.9687 98.0187 73.3954 98.1253 73.8754H96.3653C96.28 73.662 96.1627 73.4914 96.0133 73.3634C95.64 73.0114 95.144 72.8354 94.5253 72.8354C94.0453 72.8354 93.6827 72.9207 93.4373 73.0914C93.2027 73.262 93.0853 73.4754 93.0853 73.7314C93.0853 73.8274 93.1067 73.918 93.1493 74.0034C93.192 74.078 93.2667 74.1474 93.3733 74.2114C93.48 74.2754 93.5813 74.3287 93.6773 74.3714C93.784 74.414 93.928 74.462 94.1093 74.5154C94.2907 74.558 94.4453 74.5954 94.5733 74.6274C94.7013 74.6487 94.8773 74.686 95.1013 74.7394C95.336 74.782 95.5173 74.8194 95.6453 74.8514C97.352 75.2354 98.2053 76.0567 98.2053 77.3154C98.2053 77.998 97.896 78.5847 97.2773 79.0754C96.6693 79.5554 95.832 79.7954 94.7653 79.7954C93.3787 79.7954 92.3173 79.342 91.5813 78.4354C91.2507 78.0194 91.032 77.566 90.9253 77.0754Z" fill="#878787"/>
<defs>
<clipPath id="clip0_1041_22511">
<rect width="37.6354" height="37.6354" fill="white" transform="translate(47.1826 25)"/>
</clipPath>
</defs>
</svg>
