<svg width="134" height="108" viewBox="0 0 134 108" fill="none" xmlns="http://www.w3.org/2000/svg">
<path opacity="0.7" d="M34.56 76.64H36.48C36.5547 77.0133 36.7093 77.3493 36.944 77.648C37.456 78.3093 38.2347 78.64 39.28 78.64C40.1227 78.64 40.7467 78.4907 41.152 78.192C41.5573 77.8827 41.76 77.472 41.76 76.96C41.76 76.5547 41.5733 76.2293 41.2 75.984C40.8373 75.7387 40.3147 75.5253 39.632 75.344C38.2987 75.0027 37.4027 74.72 36.944 74.496C35.6747 73.9093 35.04 73.024 35.04 71.84C35.04 70.9333 35.424 70.1493 36.192 69.488C36.96 68.816 37.9627 68.48 39.2 68.48C40.8427 68.48 42.064 69.0293 42.864 70.128C43.2053 70.5973 43.4507 71.1413 43.6 71.76H41.68C41.6053 71.4613 41.472 71.1947 41.28 70.96C40.832 70.4267 40.1387 70.16 39.2 70.16C38.4747 70.16 37.92 70.3093 37.536 70.608C37.152 70.9067 36.96 71.2907 36.96 71.76C36.96 72.464 37.6693 73.008 39.088 73.392C39.2053 73.424 39.4293 73.488 39.76 73.584C40.0907 73.6693 40.3253 73.7387 40.464 73.792C40.6133 73.8347 40.8373 73.9093 41.136 74.016C41.4453 74.112 41.6747 74.2027 41.824 74.288C41.9733 74.3733 42.1653 74.4853 42.4 74.624C42.6347 74.752 42.8107 74.8907 42.928 75.04C43.056 75.1787 43.184 75.3387 43.312 75.52C43.4507 75.7013 43.5467 75.9093 43.6 76.144C43.6533 76.368 43.68 76.6133 43.68 76.88C43.68 77.84 43.28 78.656 42.48 79.328C41.6907 79.9893 40.624 80.32 39.28 80.32C37.488 80.32 36.1707 79.7067 35.328 78.48C34.944 77.9573 34.688 77.344 34.56 76.64ZM46.1077 78.944C45.3077 78.1227 44.9077 77.1147 44.9077 75.92C44.9077 74.7253 45.3077 73.7227 46.1077 72.912C46.9184 72.0907 47.905 71.68 49.0677 71.68C50.2304 71.68 51.2117 72.0907 52.0117 72.912C52.8224 73.7227 53.2277 74.7253 53.2277 75.92V76.48H46.5877C46.7157 77.152 47.009 77.68 47.4677 78.064C47.9264 78.448 48.4597 78.64 49.0677 78.64C49.8144 78.64 50.4117 78.4533 50.8597 78.08C51.0624 77.9307 51.2384 77.744 51.3877 77.52H53.1477C52.9237 78.0427 52.641 78.4853 52.2997 78.848C51.425 79.7227 50.3477 80.16 49.0677 80.16C47.905 80.16 46.9184 79.7547 46.1077 78.944ZM46.6677 75.12H51.4677C51.3717 74.5867 51.1157 74.1333 50.6997 73.76C50.2944 73.3867 49.7504 73.2 49.0677 73.2C48.4917 73.2 47.9797 73.376 47.5317 73.728C47.0837 74.0693 46.7957 74.5333 46.6677 75.12ZM54.1442 73.36V71.84H55.1042V70.08H56.7842V71.84H59.2642V73.36H56.7842V78.48H59.3442V80H55.1042V73.36H54.1442ZM60.2594 73.36V71.84H61.2194V70.08H62.8994V71.84H65.3794V73.36H62.8994V78.48H65.4594V80H61.2194V73.36H60.2594ZM67.1426 70.352C66.9506 70.16 66.8546 69.9253 66.8546 69.648C66.8546 69.3707 66.9506 69.136 67.1426 68.944C67.3346 68.7413 67.5692 68.64 67.8466 68.64C68.1239 68.64 68.3586 68.7413 68.5506 68.944C68.7532 69.136 68.8546 69.3707 68.8546 69.648C68.8546 69.9253 68.7532 70.16 68.5506 70.352C68.3586 70.544 68.1239 70.64 67.8466 70.64C67.5692 70.64 67.3346 70.544 67.1426 70.352ZM67.0146 80V71.84H68.6946V80H67.0146ZM70.7235 80V71.84H72.4035V72.96H72.4835C72.6115 72.7467 72.8088 72.5333 73.0755 72.32C73.6515 71.8933 74.3075 71.68 75.0435 71.68C76.0568 71.68 76.8408 71.9733 77.3955 72.56C77.9608 73.1467 78.2435 74 78.2435 75.12V80H76.5635V75.28C76.5635 74.5653 76.4035 74.0427 76.0835 73.712C75.7742 73.3707 75.2942 73.2 74.6435 73.2C73.9928 73.2 73.4542 73.424 73.0275 73.872C72.6115 74.3093 72.4035 74.8853 72.4035 75.6V80H70.7235ZM80.8061 78.992C80.0807 78.2027 79.7181 77.1787 79.7181 75.92C79.7181 74.6613 80.0807 73.6427 80.8061 72.864C81.5421 72.0747 82.4594 71.68 83.5581 71.68C84.2514 71.68 84.8861 71.8827 85.4621 72.288C85.7181 72.4693 85.9367 72.672 86.1181 72.896H86.1981V71.84H87.8781V83.04H80.9181V81.52H86.1981V78.96H86.1181C85.9367 79.184 85.7181 79.3867 85.4621 79.568C84.8967 79.9627 84.2621 80.16 83.5581 80.16C82.4594 80.16 81.5421 79.7707 80.8061 78.992ZM82.1181 73.904C81.6914 74.3733 81.4781 75.0453 81.4781 75.92C81.4781 76.7947 81.6914 77.4667 82.1181 77.936C82.5447 78.4053 83.1314 78.64 83.8781 78.64C84.5821 78.64 85.1421 78.4053 85.5581 77.936C85.9847 77.456 86.1981 76.784 86.1981 75.92C86.1981 75.056 85.9847 74.3893 85.5581 73.92C85.1421 73.44 84.5821 73.2 83.8781 73.2C83.1314 73.2 82.5447 73.4347 82.1181 73.904ZM89.347 77.44H91.187C91.2617 77.6533 91.395 77.856 91.587 78.048C91.9817 78.4427 92.515 78.64 93.187 78.64C93.7737 78.64 94.2004 78.5493 94.467 78.368C94.7337 78.1867 94.867 77.9573 94.867 77.68C94.867 77.584 94.8457 77.4987 94.803 77.424C94.7604 77.3387 94.6857 77.264 94.579 77.2C94.4724 77.136 94.371 77.0827 94.275 77.04C94.179 76.9867 94.035 76.9387 93.843 76.896C93.651 76.8427 93.4964 76.8053 93.379 76.784C93.2617 76.752 93.0804 76.7093 92.835 76.656C92.6004 76.6027 92.4244 76.5653 92.307 76.544C90.6004 76.16 89.747 75.3387 89.747 74.08C89.747 73.44 90.0404 72.88 90.627 72.4C91.2137 71.92 91.987 71.68 92.947 71.68C94.2804 71.68 95.2777 72.1067 95.939 72.96C96.2377 73.3333 96.4404 73.76 96.547 74.24H94.787C94.7017 74.0267 94.5844 73.856 94.435 73.728C94.0617 73.376 93.5657 73.2 92.947 73.2C92.467 73.2 92.1044 73.2853 91.859 73.456C91.6244 73.6267 91.507 73.84 91.507 74.096C91.507 74.192 91.5284 74.2827 91.571 74.368C91.6137 74.4427 91.6884 74.512 91.795 74.576C91.9017 74.64 92.003 74.6933 92.099 74.736C92.2057 74.7787 92.3497 74.8267 92.531 74.88C92.7124 74.9227 92.867 74.96 92.995 74.992C93.123 75.0133 93.299 75.0507 93.523 75.104C93.7577 75.1467 93.939 75.184 94.067 75.216C95.7737 75.6 96.627 76.4213 96.627 77.68C96.627 78.3627 96.3177 78.9493 95.699 79.44C95.091 79.92 94.2537 80.16 93.187 80.16C91.8004 80.16 90.739 79.7067 90.003 78.8C89.6724 78.384 89.4537 77.9307 89.347 77.44Z" fill="#878787"/>
<g opacity="0.7" clip-path="url(#clip0_1041_22487)">
<path d="M63.4875 31.4755C64.1265 28.8415 67.8735 28.8415 68.5125 31.4755C68.6084 31.8712 68.7963 32.2387 69.0611 32.548C69.3258 32.8573 69.6598 33.0998 70.036 33.2556C70.4121 33.4115 70.8197 33.4763 71.2257 33.4448C71.6316 33.4133 72.0244 33.2865 72.372 33.0745C74.6865 31.6645 77.337 34.3135 75.927 36.6295C75.7153 36.977 75.5887 37.3695 75.5573 37.7752C75.5259 38.1808 75.5906 38.5882 75.7463 38.9641C75.9019 39.34 76.1441 39.6739 76.4531 39.9386C76.7621 40.2033 77.1292 40.3914 77.5245 40.4875C80.1585 41.1265 80.1585 44.8735 77.5245 45.5125C77.1288 45.6084 76.7613 45.7963 76.452 46.0611C76.1427 46.3258 75.9002 46.6598 75.7444 47.036C75.5885 47.4121 75.5237 47.8197 75.5552 48.2257C75.5867 48.6316 75.7135 49.0244 75.9255 49.372C77.3355 51.6865 74.6865 54.337 72.3705 52.927C72.023 52.7153 71.6305 52.5887 71.2248 52.5573C70.8192 52.5259 70.4118 52.5906 70.0359 52.7463C69.66 52.9019 69.3261 53.1441 69.0614 53.4531C68.7967 53.7621 68.6086 54.1292 68.5125 54.5245C67.8735 57.1585 64.1265 57.1585 63.4875 54.5245C63.3916 54.1288 63.2037 53.7613 62.9389 53.452C62.6742 53.1427 62.3402 52.9002 61.964 52.7444C61.5879 52.5885 61.1803 52.5237 60.7743 52.5552C60.3684 52.5867 59.9756 52.7135 59.628 52.9255C57.3135 54.3355 54.663 51.6865 56.073 49.3705C56.2847 49.023 56.4113 48.6305 56.4427 48.2248C56.4741 47.8192 56.4094 47.4118 56.2537 47.0359C56.0981 46.66 55.8559 46.3261 55.5469 46.0614C55.2379 45.7967 54.8708 45.6086 54.4755 45.5125C51.8415 44.8735 51.8415 41.1265 54.4755 40.4875C54.8712 40.3916 55.2387 40.2037 55.548 39.9389C55.8573 39.6742 56.0998 39.3402 56.2556 38.964C56.4115 38.5879 56.4763 38.1803 56.4448 37.7743C56.4133 37.3684 56.2865 36.9756 56.0745 36.628C54.6645 34.3135 57.3135 31.663 59.6295 33.073C61.1295 33.985 63.0735 33.178 63.4875 31.4755Z" stroke="#878787" stroke-width="2" stroke-linecap="round" stroke-linejoin="round"/>
<path d="M66 47.5C68.4853 47.5 70.5 45.4853 70.5 43C70.5 40.5147 68.4853 38.5 66 38.5C63.5147 38.5 61.5 40.5147 61.5 43C61.5 45.4853 63.5147 47.5 66 47.5Z" stroke="#878787" stroke-width="2" stroke-linecap="round" stroke-linejoin="round"/>
</g>
<defs>
<clipPath id="clip0_1041_22487">
<rect width="36" height="36" fill="white" transform="translate(48 25)"/>
</clipPath>
</defs>
</svg>
