<svg width="134" height="108" viewBox="0 0 134 108" fill="none" xmlns="http://www.w3.org/2000/svg">
<path d="M63.303 32.4087C63.303 31.5769 63.6385 30.7792 64.2356 30.191C64.8326 29.6029 65.6425 29.2724 66.4868 29.2724C67.3312 29.2724 68.1411 29.6029 68.7381 30.191C69.3352 30.7792 69.6706 31.5769 69.6706 32.4087C69.6659 35.0228 68.6041 37.1131 66.4805 38.6813H66.4932L53.8042 45.625C53.3076 45.8966 52.8938 46.2942 52.6058 46.7765C52.3178 47.2587 52.166 47.8081 52.1661 48.3677V49.6582C52.1661 50.49 52.5016 51.2878 53.0986 51.8759C53.6957 52.4641 54.5055 52.7945 55.3499 52.7945H77.6365C78.4809 52.7945 79.2907 52.4641 79.8878 51.8759C80.4849 51.2878 80.8203 50.49 80.8203 49.6582V48.3677C80.8205 47.8081 80.6686 47.2587 80.3806 46.7765C80.0926 46.2942 79.6788 45.8966 79.1822 45.625L66.4932 38.6813" stroke="#878787" stroke-width="2" stroke-linecap="round" stroke-linejoin="round"/>
<path d="M26.8594 65.4354H28.7794L30.7314 75.0354H30.9714L32.8594 65.4354H35.6594L37.6274 75.0354H37.8674L39.7394 65.4354H41.5794L39.2594 76.6354H36.2994L34.3794 67.4354H34.1394L32.2994 76.6354H29.2594L26.8594 65.4354ZM43.7824 75.6274C43.0571 74.838 42.6944 73.814 42.6944 72.5554C42.6944 71.2967 43.0571 70.278 43.7824 69.4994C44.5184 68.71 45.4357 68.3154 46.5344 68.3154C47.2277 68.3154 47.8624 68.518 48.4384 68.9234C48.6837 69.094 48.9024 69.2914 49.0944 69.5154H49.1744V68.4754H50.8544V76.6354H49.1744V75.5154H49.0944C48.9344 75.7394 48.7157 75.9527 48.4384 76.1554C47.8624 76.582 47.2277 76.7954 46.5344 76.7954C45.4357 76.7954 44.5184 76.406 43.7824 75.6274ZM45.0944 70.5394C44.6677 71.0087 44.4544 71.6807 44.4544 72.5554C44.4544 73.43 44.6677 74.102 45.0944 74.5714C45.5211 75.0407 46.1077 75.2754 46.8544 75.2754C47.5584 75.2754 48.1184 75.0407 48.5344 74.5714C48.9611 74.0914 49.1744 73.4194 49.1744 72.5554C49.1744 71.6914 48.9611 71.0247 48.5344 70.5554C48.1184 70.0754 47.5584 69.8354 46.8544 69.8354C46.1077 69.8354 45.5211 70.07 45.0944 70.5394ZM53.4919 76.6354V68.4754H55.1719V69.6754H55.2519C55.3692 69.4514 55.5399 69.238 55.7639 69.0354C56.2546 68.6087 56.8306 68.3954 57.4919 68.3954H58.4519V69.9954H57.4119C56.7612 69.9954 56.2226 70.2034 55.7959 70.6194C55.3799 71.0247 55.1719 71.5634 55.1719 72.2354V76.6354H53.4919ZM61.058 75.6274C60.3327 74.838 59.97 73.814 59.97 72.5554C59.97 71.2967 60.3327 70.278 61.058 69.4994C61.794 68.71 62.7114 68.3154 63.81 68.3154C64.5034 68.3154 65.138 68.518 65.714 68.9234C65.9594 69.094 66.178 69.2914 66.37 69.5154H66.45V65.4354H68.13V76.6354H66.45V75.5954H66.37C66.1887 75.8194 65.97 76.022 65.714 76.2034C65.1487 76.598 64.514 76.7954 63.81 76.7954C62.7114 76.7954 61.794 76.406 61.058 75.6274ZM62.37 70.5394C61.9434 71.0087 61.73 71.6807 61.73 72.5554C61.73 73.43 61.9434 74.102 62.37 74.5714C62.7967 75.0407 63.3834 75.2754 64.13 75.2754C64.834 75.2754 65.394 75.0407 65.81 74.5714C66.2367 74.0914 66.45 73.4194 66.45 72.5554C66.45 71.6914 66.2367 71.0247 65.81 70.5554C65.394 70.0754 64.834 69.8354 64.13 69.8354C63.3834 69.8354 62.7967 70.07 62.37 70.5394ZM70.7675 76.6354V68.4754H72.4475V69.6754H72.5275C72.6449 69.4514 72.8155 69.238 73.0395 69.0354C73.5302 68.6087 74.1062 68.3954 74.7675 68.3954H75.7275V69.9954H74.6875C74.0369 69.9954 73.4982 70.2034 73.0715 70.6194C72.6555 71.0247 72.4475 71.5634 72.4475 72.2354V76.6354H70.7675ZM78.4617 75.5794C77.651 74.758 77.2457 73.75 77.2457 72.5554C77.2457 71.3607 77.651 70.358 78.4617 69.5474C79.283 68.726 80.291 68.3154 81.4857 68.3154C82.6803 68.3154 83.683 68.726 84.4937 69.5474C85.315 70.358 85.7257 71.3607 85.7257 72.5554C85.7257 73.75 85.315 74.758 84.4937 75.5794C83.683 76.39 82.6803 76.7954 81.4857 76.7954C80.291 76.7954 79.283 76.39 78.4617 75.5794ZM79.6937 70.5874C79.235 71.078 79.0057 71.734 79.0057 72.5554C79.0057 73.3767 79.235 74.038 79.6937 74.5394C80.1523 75.03 80.7497 75.2754 81.4857 75.2754C82.2217 75.2754 82.819 75.03 83.2777 74.5394C83.7363 74.038 83.9657 73.3767 83.9657 72.5554C83.9657 71.734 83.7363 71.078 83.2777 70.5874C82.819 70.086 82.2217 69.8354 81.4857 69.8354C80.7497 69.8354 80.1523 70.086 79.6937 70.5874ZM87.8869 76.6354V65.4354H89.5669V69.5154H89.6469C89.8389 69.2914 90.0576 69.094 90.3029 68.9234C90.8789 68.518 91.5136 68.3154 92.2069 68.3154C93.3056 68.3154 94.2176 68.71 94.9429 69.4994C95.6789 70.278 96.0469 71.2967 96.0469 72.5554C96.0469 73.814 95.6789 74.838 94.9429 75.6274C94.2176 76.406 93.3056 76.7954 92.2069 76.7954C91.5029 76.7954 90.8683 76.598 90.3029 76.2034C90.0469 76.022 89.8283 75.8194 89.6469 75.5954H89.5669V76.6354H87.8869ZM90.1909 70.5554C89.7749 71.0247 89.5669 71.6914 89.5669 72.5554C89.5669 73.4194 89.7749 74.0914 90.1909 74.5714C90.6176 75.0407 91.1829 75.2754 91.8869 75.2754C92.6336 75.2754 93.2203 75.0407 93.6469 74.5714C94.0736 74.102 94.2869 73.43 94.2869 72.5554C94.2869 71.6807 94.0736 71.0087 93.6469 70.5394C93.2203 70.07 92.6336 69.8354 91.8869 69.8354C91.1829 69.8354 90.6176 70.0754 90.1909 70.5554ZM98.9244 75.5794C98.1244 74.758 97.7244 73.75 97.7244 72.5554C97.7244 71.3607 98.1244 70.358 98.9244 69.5474C99.7351 68.726 100.722 68.3154 101.884 68.3154C103.047 68.3154 104.028 68.726 104.828 69.5474C105.639 70.358 106.044 71.3607 106.044 72.5554V73.1154H99.4044C99.5324 73.7874 99.8258 74.3154 100.284 74.6994C100.743 75.0834 101.276 75.2754 101.884 75.2754C102.631 75.2754 103.228 75.0887 103.676 74.7154C103.879 74.566 104.055 74.3794 104.204 74.1554H105.964C105.74 74.678 105.458 75.1207 105.116 75.4834C104.242 76.358 103.164 76.7954 101.884 76.7954C100.722 76.7954 99.7351 76.39 98.9244 75.5794ZM99.4844 71.7554H104.284C104.188 71.222 103.932 70.7687 103.516 70.3954C103.111 70.022 102.567 69.8354 101.884 69.8354C101.308 69.8354 100.796 70.0114 100.348 70.3634C99.9004 70.7047 99.6124 71.1687 99.4844 71.7554Z" fill="#878787"/>
</svg>
